<svg version="1.0" xmlns="http://www.w3.org/2000/svg" width="1386.667" height="1386.667" viewBox="0 0 1040 1040"><path d="M516.5 1.9c-1.6.9-3.5 2.2-4.3 2.8-.7.7-1.7 1.3-2.2 1.3-.4 0-5.2 2.6-10.7 5.8C493.9 15 487 19 484 20.7c-8.4 4.6-10.3 5.7-11.8 7-.7.7-1.8 1.3-2.4 1.3-.5 0-3 1.3-5.5 3-2.4 1.6-4.6 3-4.9 3-.3 0-5.9 3.1-12.4 7-6.5 3.8-12.2 7-12.6 7-.4 0-1.5.6-2.3 1.4-.9.8-2.3 1.6-3.1 1.8-.8.2-2.2 1-3.1 1.8-1 .8-3.5 2.4-5.6 3.5-2.1 1.1-7 3.9-10.9 6.2-3.9 2.4-7.4 4.3-7.6 4.3-.3 0-4.6 2.5-9.6 5.5s-9.6 5.5-10.1 5.5-1.6.6-2.3 1.3c-.7.7-6 3.9-11.8 7.1-5.8 3.2-10.7 6.1-11 6.5-.3.3-2.7 1.7-5.5 3.1-2.7 1.3-5.2 2.7-5.5 3-.5.6-5.6 3.5-17 9.8-2.5 1.4-4.9 2.8-5.5 3.2-.9.7-4.6 2.8-12.5 7.2-1.9 1.1-5.1 2.9-7 4-1.9 1.2-6 3.4-9 5.1-3 1.7-5.7 3.3-6 3.6-.3.3-2.5 1.6-5 2.9-2.5 1.3-6.5 3.6-9 5.1-2.5 1.5-7 4-10 5.7-3 1.6-5.7 3.2-6 3.5-.3.3-3 1.9-6 3.6-3 1.6-7.4 4.2-9.7 5.6-2.4 1.5-4.5 2.7-4.7 2.7-.3 0-12.9 7.2-28.1 16-15.1 8.8-28 16-28.5 16-.6 0-1 .4-1 1 0 .5-.6 1-1.4 1-.8 0-2.1.6-2.8 1.2-.7.7-3.9 2.6-7.1 4.3-3.1 1.6-5.7 3.4-5.7 3.9s-.3.6-.6.3c-.4-.4-1.9.2-3.4 1.3-1.6 1.1-3.1 2-3.4 2-.3 0-2.9 1.5-5.8 3.3-2.9 1.9-6 3.7-6.8 4-.8.4-3.1 1.7-5 2.8-1.9 1.1-8.7 5-15 8.6-6.3 3.6-12.6 7.3-14 8.1-1.4.9-2.7 1.5-2.9 1.3-.2-.1-.7.1-1 .6-.3.5-3.1 2.3-6.1 3.9-3 1.6-5.7 3.1-6 3.4-.6.6-6.2 3.7-12.7 7.2-2.4 1.2-4.3 2.6-4.3 3 0 .4-.9.8-2 .8s-2 .4-2 .8c0 .5-1.1 1.4-2.5 2L68 260v519.8l6.1 3.6c3.3 2 6.5 3.6 7 3.6s.9.4.9.9 1.2 1.4 2.8 2c1.5.6 5 2.4 7.7 4.1 2.8 1.6 5.7 3.3 6.5 3.7.8.4 5.5 3.1 10.4 6s9 5.3 9.2 5.3c.3 0 2.1 1.1 4.2 2.3 2 1.3 6 3.7 8.7 5.2 9.1 5.2 15.7 9 21.4 12.3 3.1 1.8 6.4 3.5 7.4 3.9.9.3 1.7.9 1.7 1.4 0 .5.4.9 1 .9.5 0 4.4 2 8.6 4.5 4.1 2.5 7.7 4.5 7.9 4.5.3 0 3.8 2 7.8 4.5 4.1 2.5 8 4.5 8.6 4.5.6 0 1.1.4 1.1 1 0 .5.5 1 1 1 .6 0 2.7 1.1 4.8 2.3 3.3 2.1 7.9 4.8 16.2 9.4 1.4.8 3.9 2.3 5.5 3.3 1.7 1.1 4.9 2.8 7.2 4 2.3 1.1 4.8 2.5 5.5 3.2.8.7 3.2 2.2 5.3 3.4 7.9 4.1 12.9 6.9 14.3 8.2.7.6 1.7 1.2 2.1 1.2.4 0 10.8 5.8 23 13 12.3 7.1 22.4 13 22.6 13 .2 0 3.8 2 7.9 4.5 4.2 2.5 8.1 4.5 8.6 4.5.6 0 1 .4 1 1 0 .5.4 1 .9 1 .4 0 4.6 2.2 9.2 4.8 4.6 2.7 9.5 5.5 10.9 6.3 1.4.8 2.7 1.6 3 1.9.3.3 2.1 1.3 4 2.3 5.9 3.1 9.5 5.2 10 5.7.3.3 3.4 2 7 3.9s6.7 3.7 7 4c.3.4 3 1.9 6 3.5s6.2 3.5 7 4.2c.8.7 2.6 1.7 4 2.3 1.4.6 3.9 2 5.5 3 2.9 1.8 6.5 3.9 14.3 8.2 2 1.2 7.8 4.5 12.7 7.4 5 2.9 9.3 5.2 9.6 5.2.4-.1 1.5.5 2.5 1.3 1.1.8 3 2.1 4.4 2.9 1.4.8 6.2 3.6 10.8 6.3 4.6 2.6 8.8 4.8 9.3 4.8s.9.4.9 1c0 .5.4 1 .9 1 .4 0 4.7 2.3 9.5 5 4.8 2.8 9.1 5 9.6 5 .6 0 1 .4 1 .9s.8 1.1 1.8 1.5c.9.3 2.4 1 3.2 1.5 5.7 3.6 17.2 10.1 18 10.1.6 0 1 .4 1 .8s1.2 1.3 2.8 2c1.5.6 4.6 2.3 7 3.6l4.3 2.5 4.7-2.6c2.5-1.4 6.9-3.9 9.6-5.6 5-2.9 8.2-4.8 14.9-8.5 1.7-1.1 10.9-6.3 20.2-11.7 9.4-5.4 18.7-10.8 20.7-11.9 7.6-4.3 25.9-14.8 36.9-21.2 3-1.7 5.9-3.2 6.4-3.3.6-.2 1.7-.8 2.5-1.5.8-.8 3.5-2.5 6-3.8 6.2-3.5 10.7-6.1 16-9.2 2.5-1.5 5.7-3.2 7.3-3.9 1.5-.6 2.7-1.5 2.7-1.9 0-.4.4-.8.9-.8.7 0 12.9-6.8 18.1-10.1.8-.5 2.3-1.2 3.3-1.5.9-.4 1.7-1 1.7-1.5s.5-.9 1-.9c1 0 16.9-8.9 18-10 .3-.3 2.4-1.4 4.7-2.5 2.4-1.1 4.3-2.3 4.3-2.8 0-.4.5-.7 1-.7.6 0 2.8-1.1 5-2.5s4-2.2 4-1.8c0 .5.4.3.8-.3.6-1 2.7-2.4 11.2-7.1 6.4-3.6 12.8-7.3 22.2-12.7 5.7-3.3 11.7-6.7 13.3-7.6 1.7-.9 4.8-2.7 7-4.1 2.2-1.5 5-2.9 6.3-3.3 1.2-.4 2.2-1.1 2.2-1.5 0-.4 2.3-1.8 5-3 2.8-1.2 5-2.8 5-3.3 0-.6.3-.9.6-.5.4.3 2.3-.5 4.3-1.8 1.9-1.4 4.1-2.5 4.8-2.5.7 0 1.3-.5 1.3-1 0-.6.4-1 1-1 .5 0 3.9-1.8 7.5-4s6.8-4 7.1-4c.4 0 2.9-1.5 5.6-3.3 2.8-1.7 5.3-3.2 5.7-3.1.3 0 1.1-.4 1.6-.8 2.2-1.9 12.5-7.6 12.5-7 0 .4.4.2.8-.3.8-1.2 13-8.5 14.1-8.5.5 0 1.4-.7 2.1-1.5.7-.8 2.1-1.5 3-1.5 1 0 2-.4 2.2-.8.2-.4 5-3.5 10.8-6.9 30-17.4 44.1-25.3 45-25.3.6 0 1-.5 1-1 0-.6.4-1 .9-1s5.9-2.9 12-6.5c6-3.6 11.4-6.5 12-6.5.6 0 1.1-.3 1.1-.8 0-.4 1.2-1.3 2.8-1.9 1.5-.7 4.2-2.2 6-3.3l3.2-2V259.4l-2.7-1.2c-3.5-1.5-10.7-5.5-15.5-8.7-2.1-1.4-4-2.5-4.3-2.5-.3 0-3.5-1.8-7.1-4-3.6-2.2-7-4-7.5-4s-.9-.5-.9-1c0-.6-.9-1-2-1s-2-.3-2-.8c0-.4-3-2.3-6.8-4.2-3.7-1.9-6.9-3.8-7.2-4.1-.3-.3-2.5-1.6-5-3-2.5-1.3-4.6-2.7-4.8-3.2-.2-.4-.7-.7-1.1-.7-.5 0-4.8-2.3-9.7-5.1-4.9-2.9-10.9-6.3-13.4-7.7-2.5-1.4-8.2-4.7-12.8-7.3-4.5-2.7-8.7-4.9-9.2-4.9-.6 0-1-.4-1-.8s-1.2-1.3-2.7-2c-1.6-.6-4.6-2.2-6.8-3.5-4.5-2.6-10-5.8-13.6-7.9-1.3-.7-2.6-1.5-2.9-1.8-.3-.3-3-1.8-6-3.4-3-1.7-7.8-4.5-10.7-6.3-2.9-1.8-5.6-3.3-6.1-3.3s-1.9-.9-3.2-2c-1.2-1.1-2.7-1.7-3.1-1.4-.5.3-.9 0-.9-.5 0-.6-.4-1.1-.9-1.1s-4.2-2-8.3-4.5c-4.2-2.5-8-4.5-8.7-4.5-.6 0-1.1-.5-1.1-1 0-.6-.7-1-1.5-1s-1.5-.5-1.5-1c0-.6-.5-1-1.1-1-.6 0-3.9-1.7-7.3-3.7-3.3-2.1-6.3-3.8-6.6-3.8-.3 0-1.6-.8-3-1.7-5.5-3.5-15.2-8.8-16.1-8.8-.5 0-.9-.5-.9-1 0-.6-.4-1-1-1-.5 0-4.2-1.9-8.2-4.3-4-2.4-8-4.6-8.8-5-.8-.4-3.7-2.1-6.5-3.8-2.7-1.6-5.8-3.3-6.7-3.6-1-.3-1.8-.9-1.8-1.4 0-.5-.5-.9-1.1-.9-.6 0-4.5-2-8.6-4.5-4-2.5-7.6-4.5-7.9-4.5-.3 0-1.8-.8-3.2-1.9-1.5-1-4.9-3-7.7-4.6-6.4-3.5-31.2-17.8-35.6-20.4-1.9-1.2-4.7-2.8-6.4-3.6-1.6-.9-4.3-2.4-6-3.4-1.6-1-4.8-2.8-7-4.1-2.2-1.2-8.3-4.8-13.5-7.8-5.2-3.1-9.8-5.6-10.2-5.5-.3.1-1.2-.4-1.8-1.2-.7-.8-1.9-1.5-2.6-1.5-.8 0-1.4-.3-1.4-.8 0-.4-1.5-1.3-3.2-2.1-1.8-.8-3.5-1.7-3.8-2-.3-.3-2.5-1.7-5-3s-5.3-3.1-6.2-3.9c-1-.8-1.8-1.1-1.8-.6 0 .5-.4.4-.8-.1-.4-.6-1.8-1.6-3.1-2.3-10.6-6-16.4-9.3-19.6-11.3-1.6-1.1-3.7-2.2-4.5-2.6-.8-.4-4.6-2.6-8.5-4.8-3.8-2.3-8.5-4.8-10.2-5.6-1.8-.7-3.3-1.7-3.3-2.1 0-.4-1.7-1.5-3.7-2.5-2.1-.9-4.5-2-5.4-2.4-.8-.4-2.8 0-4.4 1zm11.4 76.6c2.2 1.4 4.5 2.5 5.1 2.5.5 0 1 .4 1 1 0 .5.4 1 .9 1s4.7 2.2 9.4 5c4.7 2.7 9 5 9.6 5 .6 0 1.1.4 1.1 1 0 .5.4 1 1 1 .5 0 3.3 1.4 6.2 3.1 4.9 2.9 11.3 6.6 16.3 9.3 1.1.6 2.2 1.3 2.5 1.6.3.3 2.5 1.6 5 2.9 2.5 1.3 5.2 3 6.1 3.7.8.8 1.9 1.4 2.3 1.4.6 0 15.3 8.4 36.6 20.8 1.9 1.1 5.1 2.9 7 4 1.9 1.1 5.1 2.8 7 4 1.9 1.1 8.9 5 15.5 8.8 6.6 3.7 12.2 7.1 12.3 7.6.2.4.8.8 1.3.8s6.4 3.1 13 7c6.6 3.8 12.2 7 12.5 7 .3 0 1.8.8 3.2 1.9 2.8 1.9 13.1 7.7 16.9 9.5 1.3.6 2.3 1.4 2.3 1.8 0 .5.6.8 1.4.8.8 0 1.8.6 2.3 1.2.8 1.4 1.1 146.8.3 146.8-.5 0-13.9-13.2-166.1-164-73.7-73-78.9-78.3-78.6-78.6.1-.2 8.7-5.2 19.2-11.2 20.7-12 19.6-11.7 27.4-6.7zm-25.6 129.8c21.3 21.2 38.7 38.7 38.7 39.1 0 .3-1.2.4-2.7.2-1.6-.3-73.5-.6-159.9-.8-112.2-.2-156.8-.6-156-1.3.6-.6 4-2.7 7.6-4.6 3.6-1.8 6.7-3.7 6.8-4.2.2-.4.8-.7 1.3-.7.6 0 3.5-1.6 6.5-3.5s5.6-3.5 5.8-3.5c.3 0 3.9-2 8-4.5 4.2-2.5 8.1-4.5 8.6-4.5.6 0 1-.5 1-1 0-.6.4-1 1-1 .5 0 7.1-3.6 14.6-8s14-8 14.4-8c.4 0 1.3-.7 2-1.5s1.6-1.2 2.1-.9c.5.3.9 0 .9-.5 0-.6.7-1.1 1.5-1.1s1.5-.3 1.5-.8c0-.4 2.4-1.8 5.3-3.2 2.8-1.4 5.4-2.7 5.7-3 .5-.6 5.4-3.5 13.3-7.9 4.8-2.7 46.1-26.4 67.7-38.9 9.1-5.3 18.5-10.6 21-11.9l4.5-2.3 20 20c11 11 37.4 37.2 58.8 58.3zm300.4 28.1c1.3.6 2.3 1.4 2.3 1.8 0 .5.4.8 1 .8 1.3 0 36.3 20.2 37.2 21.5.4.5.8.6.8.1s.8-.3 1.8.5c.9.8 3.7 2.5 6.2 3.8 2.5 1.3 5.2 3 6.1 3.8.9.7 1.9 1 2.2.6.4-.3.7-.2.7.4 0 .6.8 1.3 1.8 1.6.9.4 4 2 6.7 3.6 2.8 1.7 7.4 4.3 10.3 5.8 2.8 1.5 5.2 3.1 5.2 3.5 0 .4.5.8 1.1.8 1.4 0 20.2 11 21.1 12.3.3.5.5 3.9.4 7.3-.1 3.5.2 6.4.7 6.4.4 0 .4.8 0 1.7-.5 1-.7 3.1-.6 4.8.4 3.7.4 1.4.1 23.3-.2 10 .1 18.2.5 18.2s.4.8 0 1.7c-.5 1-.7 3.1-.6 4.8.4 3.8.4 3.1.1 15.3-.2 5.6.1 10.2.5 10.2s.4.8 0 1.7c-.5 1-.7 3.1-.6 4.8.2 1.6.3 3.4.3 4 0 .5-.1 5.6-.2 11.2l-.1 10.1-58.4 58.3-58.3 58.2v-52.4c-.1-188.7-.1-250.8-.1-253.7l.1-3.3 4.8 2.7c2.6 1.5 5.7 3.2 6.9 3.8zM341 310.7c0 .2-163.3 163.3-163.6 163.3l-22.5 22.5-22.5 22.4V310.5h104.3c57.4 0 104.3.1 104.3.2zm196.6.8c13 1.3 17.3 2.1 29.4 5.1 24.1 6 48.2 16.5 65.5 28.7 2.2 1.5 5.7 3.9 7.8 5.3 2.1 1.3 4.6 3.2 5.6 4.2.9.9 3.7 3.3 6.1 5.2 6.8 5.5 19.9 18.8 26.6 27 6.9 8.6 18.4 25.2 18.4 26.8 0 .6.4 1.2.8 1.4 1.1.4 10.4 19.8 13.4 27.8 4.3 11.2 7.9 23.2 9.4 30.5 3.6 17.7 4.5 27.1 4.5 45.5 0 10.3-.4 17.2-1.6 25-.9 6.5-1.8 11.7-2.2 13.5-.2 1.1-.7 3.3-1 5-.8 4.5-1.1 6-1.3 6-.1 0-.3.7-.5 1.6-.1.9-2.2 7.2-4.5 14-4.5 13.5-14 33.4-21.2 44.4-6.6 10.1-19.4 26.6-20.2 25.8-.3-.3-.6-.1-.6.6 0 1.4-12 13.6-20.5 20.7-6.9 5.7-20.1 15.4-21.2 15.4-.4 0-1.6.9-2.7 1.9-2.2 1.9-24.5 13.6-30.6 15.9-1.9.8-4.4 1.7-5.5 2.2-4.5 1.8-14.1 5-16 5.3-1.1.1-2.4.5-3 .9-.5.3-2.3.9-4 1.2-1.6.3-4.1.9-5.5 1.2-1.4.3-3.8.7-5.5 1-1.6.3-5.2.9-8 1.4-16.4 3-40.6 3.2-62.5.5-1.4-.2-2.5-.4-2.5-.5 0-.1-1.3-.3-3-.5-1.6-.2-4.1-.7-5.5-1.1-1.4-.4-3.7-.8-5.2-1-1.4-.1-3.6-.7-4.7-1.4-1.2-.6-2.1-.9-2.1-.6 0 .4-18.4-5.5-22-7.1-.8-.3-1.7-.7-2-.8-.3-.2-1.6-.6-2.9-1-2.8-.9-25.4-12.5-26.1-13.4-.3-.3-2.2-1.5-4.2-2.5-2.1-1.1-3.8-2.3-3.8-2.8 0-.4-.5-.8-1-.8-4.8 0-40.3-33.4-51.6-48.5-6.7-8.9-14.6-21.5-17.9-28.7-1.2-2.6-2.8-5.4-3.5-6.3-.7-.8-.9-1.5-.5-1.5s.3-.6-.2-1.3c-1.4-1.7-7.6-17.7-7.6-19.3 0-.8-.3-1.4-.7-1.4-.4 0-.7-.6-.7-1.3 0-.6-1-4.7-2.2-9-1.2-4.3-2.4-8.8-2.7-10-.2-1.2-.7-3.6-1-5.2-.4-1.7-.8-3.9-.9-5-.2-1.1-.6-4.3-.9-7-1.5-11.7-1.7-14.6-1.7-26 0-13.9 1-26.8 2.6-34.5.3-1.4.8-4.1 1.1-6 .9-5.8 5.1-21.5 7.2-27 .3-.8.6-1.7.6-2 .3-1.2 3.1-8 6.3-15 6.3-14 6.8-15 7.6-15 .4 0 .7-.6.7-1.3 0-.7 1.6-3.6 3.5-6.6 1.9-2.9 3.5-5.5 3.5-5.8 0-.3 3.2-4.8 7.2-10.1 6.9-9.3 29.7-33.1 36.6-38.2 1.9-1.4 3.9-3 4.5-3.5.7-.6 3.5-2.6 6.2-4.5 2.8-1.9 5.2-3.7 5.3-4.2.2-.4.8-.8 1.4-.8.5 0 2.8-1.3 5.1-2.8 5-3.4 28.7-15.4 28.7-14.6 0 .4.6.2 1.3-.3 2.5-2 23.9-8.8 35.7-11.3 11.1-2.3 14.9-2.9 26-3.6 5.2-.4 9.6-.7 9.8-.9.4-.3 20.7.4 26.8 1zM241.5 654c0 101.1-.3 151.6-1 151.2-.5-.3-2.3-1.5-4-2.6-1.6-1.2-3.1-2-3.3-1.8-.1.1-1.2-.4-2.5-1.2-1.2-.7-8.3-4.9-15.7-9.1-7.4-4.3-15.1-8.7-17-9.8-1.9-1.1-6-3.4-9-5-3-1.7-7.3-4.2-9.5-5.6-2.2-1.4-5.8-3.5-8-4.6-2.2-1.1-5.1-2.7-6.5-3.6-2.8-1.9-8.8-5.4-17-9.9-9.9-5.5-14.5-8.3-15.1-9.2-.3-.5-.5-25.7-.5-56.1.1-30.4-.2-56.2-.6-57.4-.4-1.2-.4-2.4 0-2.7.4-.2.7-4.2.5-8.7l-.2-8.2 54.2-54.1c29.8-29.8 54.4-54 54.7-53.8.3.2.5 68.7.5 152.2zm666.1-34.1v106H801.3c-58.5-.1-106.3-.2-106.3-.3 0-.6 97.1-97.1 98-97.4.6-.2 1-1 1-1.8s.4-1.4.8-1.4 25.8-25 56.4-55.5c30.6-30.5 55.8-55.5 56-55.5.2 0 .4 47.7.4 105.9zm-581.3 89.9c15.8 15.5 51.2 51.4 195.5 198.1 11.2 11.3 23.7 24.1 28 28.3 8.5 8.7 8.5 8.3.2 12.7-1.9 1-9.5 5.3-16.8 9.5l-13.3 7.7-3.2-1.9c-1.8-1.1-5.2-3.1-7.7-4.4-5.4-3-35.9-20.5-38-21.8-5.1-3.1-10.4-6-11.1-6-.5 0-.9-.5-.9-1.1 0-.5-.4-.7-1-.4-.5.3-1 .1-1-.4 0-.6-.4-1.1-.9-1.1-.4 0-6-3-12.2-6.6-10.8-6.3-14.4-8.4-20-11.6-1.3-.7-2.7-1.7-3-2.1-.3-.5-1-.9-1.5-.8-.5 0-2.5-1-4.4-2.2-1.9-1.1-4.6-2.7-6-3.4-1.4-.7-4.3-2.4-6.5-3.8s-4.7-2.8-5.5-3.2c-.8-.4-5.9-3.3-11.3-6.5s-10.1-5.8-10.4-5.8c-.2 0-2.5-1.4-5.1-3.2-2.6-1.8-4.9-3.2-5.2-3.2-.3.1-1.4-.4-2.5-1.1-6.2-3.8-14.7-8.5-15.6-8.5-.5 0-.9-.3-.9-.8 0-.4-1.9-1.6-4.3-2.7-2.3-1.1-4.4-2.3-4.7-2.6-.3-.4-2.7-1.9-5.5-3.3-2.7-1.5-6.8-3.8-9-5.1-2.2-1.4-5.8-3.4-8-4.5-6.8-3.5-8.7-5.4-8.9-8.8-.1-1.8.3-3.2.8-3.2.7 0 .8-.3.1-.8-1.2-.8-1.4-15.2-.2-15.2.5 0 .5-.6.1-1.2-1.1-1.8-1.2-4.8-.2-4.8.5 0 .6-.5.2-1.1-.9-1.5-.9-22.3 0-23.8.4-.6.4-1.1-.1-1.1-.4 0-.8-3.6-.8-8s.4-8 .8-8c.5 0 .5-.6.1-1.2-1.1-1.8-1.2-4.8-.2-4.8.5 0 .6-.5.2-1.1-.9-1.5-.9-22.3 0-23.8.4-.6.4-1.1-.1-1.1-.4 0-.8-3.6-.8-8s.4-8 .8-8c.5 0 .5-.6.1-1.2-1.1-1.8-1.2-4.8-.2-4.8.5 0 .6-.5.2-1.1-.5-.9-.9-24.8-.5-27.8.1-.3 2.9 2.6 6.4 6.3 3.4 3.7 9.7 10.2 14 14.4zm498.6 80.6c-1.2 1.1-16.2 9.6-17 9.6-.5 0-.9.4-.9.8s-1.5 1.5-3.2 2.3c-5.2 2.5-12.3 6.3-12.8 7-.3.3-2.5 1.6-5 3-2.5 1.3-4.8 2.8-5.2 3.4-.5.7-.8.7-.8 0s-.3-.7-.8 0c-.7 1-2.9 2.3-10.2 6.2-1.9 1-3.7 2.1-4 2.4-.3.4-2.5 1.7-5 2.9s-4.7 2.5-5 2.9c-.3.3-2.5 1.6-5 2.9-2.5 1.3-6.6 3.6-9.2 5.2-4.9 3-11.1 6.6-16.8 9.6-1.9 1.1-3.7 2.1-4 2.4-.5.5-2.4 1.6-8.8 5.1-2 1.1-5.3 3-7.2 4.1-1.9 1.2-6 3.5-9 5.1-3 1.7-6.1 3.7-6.8 4.4-.8.7-1.8 1.1-2.3.8-.5-.4-.9-.1-.9.4 0 .6-.4 1.1-.9 1.1s-3.8 1.7-7.2 3.8c-3.5 2.1-8.9 5.2-11.9 6.8-3 1.6-5.7 3.1-6 3.4-.4.5-23.5 13.8-28.5 16.4-1.1.6-2.7 1.6-3.5 2.2-.8.7-3.8 2.4-6.7 3.8l-5.1 2.7-12.4-12.5c-6.7-6.9-30.3-30.8-52.3-53.1-22-22.4-43-43.7-46.7-47.4-3.8-3.8-6.8-7.1-6.8-7.5 0-.3 73.9-.6 164.1-.6 90.3 0 164 .2 163.8.4z"/></svg>